<svg xmlns="http://www.w3.org/2000/svg" width="12" height="15.925" viewBox="0 0 12 15.925">
  <g id="cg_kodi_2021_smal_shield" transform="translate(-238.5 -837.138)">
    <path id="Path_9748" data-name="Path 9748" d="M240.964,843.336a.467.467,0,0,0,0,.659l3.529,3.529,6.007-6.007v4.239a5.712,5.712,0,0,1-2.329,4.6l-3.671,2.7-3.671-2.7a5.712,5.712,0,0,1-2.329-4.6v-6.62a.83.83,0,0,1,.648-.808l5.171-1.169a.787.787,0,0,1,.182-.021.822.822,0,0,1,.184.021l5.168,1.169a.8.8,0,0,1,.37.191.321.321,0,0,1,.049.049.486.486,0,0,1,.047.051.826.826,0,0,1,.182.517v1.074a.622.622,0,0,0-.075.063L244.5,846.2l-.007.007-2.87-2.87A.467.467,0,0,0,240.964,843.336Z" transform="translate(0 0)" fill="#fc0"/>
    <path id="Path_9749" data-name="Path 9749" d="M270.2,839.118v1.064a.618.618,0,0,0-.074.062l-5.871,5.871v-8.977a.814.814,0,0,1,.182.021l5.121,1.158a.788.788,0,0,1,.367.189.326.326,0,0,1,.048.048.48.48,0,0,1,.046.051A.819.819,0,0,1,270.2,839.118Z" transform="translate(-19.705 0)" fill="#fab400"/>
    <path id="Path_9750" data-name="Path 9750" d="M264.26,861.883l5.945-5.945v4.2A5.659,5.659,0,0,1,267.9,864.7l-3.637,2.677Z" transform="translate(-19.705 -14.315)" fill="#fab400"/>
  </g>
</svg>
