<svg xmlns="http://www.w3.org/2000/svg" width="200" height="124.238" viewBox="0 0 200 124.238">
  <g id="cyberghost-vpn-quick-connect" transform="translate(-512.69 -509.225)">
    <g id="Group_171" data-name="Group 171" transform="translate(512.69 509.225)">
      <g id="Group_168" data-name="Group 168" transform="translate(0 59.136)">
        <path id="Path_570" data-name="Path 570" d="M634.3,581.127c19,20.846-33.237,23-48.6,9.529,0,0-17.878,25-30.759,5.027-1.815,4.5-42.253,6.985-42.253,6.985l17.692-10.536,15.014-8.942c5.491-7.586,19.945-22.623,36.664-11.67,12.868-28.015,27.839-24.877,35.051-10.474" transform="translate(-512.69 -550.255)" fill="#ffcb03"/>
        <path id="Path_571" data-name="Path 571" d="M605.61,561.652c-23.672,12.307-67.017,20.5-67.017,20.5,31.521-4.749,58.488-8.739,69.622-17.91Z" transform="translate(-501.259 -545.225)" fill="#fff"/>
        <path id="Path_572" data-name="Path 572" d="M612.414,567.129c-9.412,8.031-42.233,17.192-79.53,20.6,24.812-3.563,51.332-16.04,77.574-27.061Z" transform="translate(-503.778 -545.659)" fill="#fff"/>
        <path id="Path_573" data-name="Path 573" d="M616.814,559.1c-27.026,15.37-62.651,22.358-101.349,26.259,37.4-3.257,71.332-9.9,100.981-20.707Z" transform="translate(-511.465 -546.351)" fill="#fff"/>
        <path id="Path_574" data-name="Path 574" d="M600.108,572.438l-36.766,9.83,36.689-13.015Z" transform="translate(-490.337 -541.87)" fill="#fff"/>
        <path id="Path_575" data-name="Path 575" d="M608.123,569.72c-11.727,5.04-25.517,11.4-66.371,15.869,21.99-4.085,43.267-11.758,64.529-19.492Z" transform="translate(-499.865 -543.263)" fill="#fff"/>
        <path id="Path_576" data-name="Path 576" d="M607.772,573.108c-12.908,5.667-34.2,9.165-61.8,14.234,23.068-4.73,42.219-11.78,60.023-19.623Z" transform="translate(-498.001 -542.547)" fill="#fff"/>
        <ellipse id="Ellipse_78" data-name="Ellipse 78" cx="1.581" cy="8.443" rx="1.581" ry="8.443" transform="translate(104.794 19.796) rotate(-21)" fill="#fff"/>
        <ellipse id="Ellipse_79" data-name="Ellipse 79" cx="1.776" cy="10.3" rx="1.776" ry="10.3" transform="translate(100.198 5.296) rotate(-21)" fill="#fff"/>
      </g>
      <g id="Group_170" data-name="Group 170" transform="translate(86.048)">
        <path id="Path_577" data-name="Path 577" d="M620.16,535.552c.092-2.165,6.418-19.5,6.418-19.5l11.7,3.335-6.287,20.334Z" transform="translate(-551.31 -506.21)" fill="#525668"/>
        <path id="Path_578" data-name="Path 578" d="M595.927,548.9c-1.9-1.051-14.567-14.459-14.567-14.459l8.215-8.975,15.376,14.716Z" transform="translate(-568.433 -502.058)" fill="#525668"/>
        <g id="Group_169" data-name="Group 169" transform="translate(4.238 23.617)">
          <path id="Path_579" data-name="Path 579" d="M670.531,563.738c6.594,24.976-8.593,50.478-32.77,58.419-23.434,7.7-49.16-3.2-58.716-25.57-10.307-24.128,1.44-53.308,27.826-63.729C634.223,522.054,663.386,536.669,670.531,563.738Z" transform="translate(-575.332 -523.993)" fill="#525668"/>
          <path id="Path_580" data-name="Path 580" d="M680.05,560.619c6.133,25.366-9.722,51.251-34.273,59.316-23.792,7.816-49.522-3.231-58.72-25.925-9.929-24.494,2.5-54.146,29.349-64.751C644.247,518.262,673.4,533.112,680.05,560.619Z" transform="translate(-571.658 -525.611)" fill="#a7acc5"/>
          <path id="Path_581" data-name="Path 581" d="M669.542,559.528c5.549,21.219-6.9,43.076-27.029,49.816a38.614,38.614,0,0,1-48.48-22.624,41.644,41.644,0,0,1,23.833-53.431C640.073,524.653,663.631,536.917,669.542,559.528Z" transform="translate(-568.271 -523.448)" fill="#bccfdf"/>
        </g>
        <path id="Path_582" data-name="Path 582" d="M575.635,535.1c8.53-11.509,17.679-20.22,22.267-17.222s-5.586,18-13.544,23.665C577.3,546.561,567.106,546.607,575.635,535.1Z" transform="translate(-572.391 -505.671)" fill="#ffca03"/>
        <path id="Path_583" data-name="Path 583" d="M626.586,509.507c12.632,1.88,23.322,5.421,22.889,10.287s-16.506,3.161-24.3-.722C618.268,515.627,613.954,507.628,626.586,509.507Z" transform="translate(-552.037 -509.225)" fill="#ffca03"/>
      </g>
    </g>
    <path id="Path_584" data-name="Path 584" d="M623.337,568.7c-.932-.837-18.227-17.666-18.227-17.666l.477-6.742,6.715.578,13.883,22.411S627.759,572.667,623.337,568.7Z" transform="translate(40.786 15.475)" fill="#b0c1d2"/>
    <path id="Path_585" data-name="Path 585" d="M618.607,570.442c0-1.506,1.175-30.511,1.175-30.511l6.421-4.99,4.877,6.477-8.916,30.435S618.607,577.589,618.607,570.442Z" transform="translate(46.742 11.349)" fill="#525668"/>
    <path id="Path_586" data-name="Path 586" d="M621.188,564.35c1.258-.829,26.125-15.8,26.125-15.8l7.7,2.616-2.725,7.636-30.319,9.3S615.221,568.282,621.188,564.35Z" transform="translate(46.794 17.353)" fill="#828c9e"/>
    <path id="Path_587" data-name="Path 587" d="M622.626,562.5c.886.885,17.244,18.626,17.244,18.626l-.84,6.706-6.675-.94-12.649-23.132S618.426,558.3,622.626,562.5Z" transform="translate(47.146 22.809)" fill="#8d9aab"/>
    <path id="Path_588" data-name="Path 588" d="M625.069,564.08c-.252,1.228-6.066,24.648-6.066,24.648l-6.064,2.988-2.887-6.091,12.356-23.289S626.267,558.261,625.069,564.08Z" transform="translate(42.967 22.826)" fill="#99a7b8"/>
    <path id="Path_589" data-name="Path 589" d="M627.5,563.876c-1.211.319-24.779,5.5-24.779,5.5l-5.367-4.108,4.175-5.29,26.354.738S633.248,562.365,627.5,563.876Z" transform="translate(37.363 22.398)" fill="#a5b5c5"/>
    <ellipse id="Ellipse_80" data-name="Ellipse 80" cx="4.46" cy="4.229" rx="4.46" ry="4.229" transform="translate(662.272 580.637)" fill="#525668"/>
    <path id="Path_590" data-name="Path 590" d="M623.836,541.978s19.984,7.656,20.69,17c.695,9.211-.435,20.514-11.313,27.829s-8.439,5.625-8.439,5.625,14.253-4.876,18.38-12,5.406-16.354,4.543-21.1c-1.157-6.358-5.669-10.6-10.732-13.41S623.836,541.978,623.836,541.978Z" transform="translate(49.05 14.454)" fill="#fff"/>
    <path id="Path_591" data-name="Path 591" d="M633.48,578.1s-13.707,6.113-18.688,1.831c-4.913-4.223-9.958-10.388-8.191-19.409s1.4-6.976,1.4-6.976-4.65,9.487-3.162,15.067,5.429,10.791,8.21,12.715c3.727,2.58,8.067,2.445,11.973,1.329S633.48,578.1,633.48,578.1Z" transform="translate(40.534 19.473)" fill="#fff"/>
    <path id="Path_592" data-name="Path 592" d="M618.781,581.328s-6.924.5-9.775-2.058c-2.811-2.519-6.523-6.954-6.353-11.359s-.9-1.251-.9-1.251a15.342,15.342,0,0,0,.94,6.173,19.61,19.61,0,0,0,5.545,7,12.738,12.738,0,0,0,6.386,2.313A10.54,10.54,0,0,0,618.781,581.328Z" transform="translate(39.294 24.864)" fill="#fff"/>
  </g>
</svg>
