<svg width="1140" height="343" viewBox="0 0 1140 343" fill="none" xmlns="http://www.w3.org/2000/svg">
<path d="M16.7069 125.092C8.13789 92.2532 32.2109 59.9347 66.1281 58.7426L1069.72 23.4702C1104.93 22.2327 1131.52 55.0562 1123.01 89.2437L1069.99 302.148C1064.04 326.069 1042.37 342.725 1017.73 342.335L109.764 328C85.961 327.624 65.3289 311.423 59.3181 288.389L16.7069 125.092Z" fill="#F8F9FA"/>
<path d="M972 39.375C972.122 35.2238 972.609 31.439 973.46 28.0203C974.312 24.4797 975.529 21.1831 977.112 18.1308C978.815 14.9564 980.824 11.9651 983.136 9.15698C985.57 6.22674 988.308 3.17442 991.351 0L1004.86 6.40988C1003.89 7.38663 1002.97 8.54651 1002.12 9.88953C1001.39 10.9884 1000.6 12.3924 999.748 14.1017C998.897 15.811 998.105 17.7035 997.375 19.7791C1002.49 20.7558 1006.75 23.2587 1010.15 27.2878C1013.56 31.3169 1015.27 35.9564 1015.27 41.2064C1015.27 44.2587 1014.66 47.1279 1013.44 49.814C1012.34 52.3779 1010.82 54.6366 1008.88 56.5901C1006.93 58.5436 1004.62 60.1308 1001.94 61.3517C999.383 62.4506 996.584 63 993.542 63C990.621 63 987.822 62.4506 985.144 61.3517C982.588 60.1308 980.337 58.4826 978.389 56.407C976.442 54.3314 974.86 51.8895 973.643 49.0814C972.548 46.1512 972 42.9157 972 39.375Z" fill="#DBDCED"/>
<path d="M1018.73 39.375C1018.86 35.2238 1019.34 31.439 1020.19 28.0203C1021.05 24.4797 1022.26 21.1831 1023.85 18.1308C1025.55 14.9564 1027.56 11.9651 1029.87 9.15698C1032.3 6.22674 1035.04 3.17442 1038.09 0L1051.59 6.40988C1050.62 7.38663 1049.71 8.54651 1048.86 9.88953C1048.13 10.9884 1047.33 12.3924 1046.48 14.1017C1045.63 15.811 1044.84 17.7035 1044.11 19.7791C1049.22 20.7558 1053.48 23.2587 1056.89 27.2878C1060.3 31.3169 1062 35.9564 1062 41.2064C1062 44.2587 1061.39 47.1279 1060.17 49.814C1059.08 52.3779 1057.56 54.6366 1055.61 56.5901C1053.66 58.5436 1051.35 60.1308 1048.67 61.3517C1046.12 62.4506 1043.32 63 1040.28 63C1037.35 63 1034.56 62.4506 1031.88 61.3517C1029.32 60.1308 1027.07 58.4826 1025.12 56.407C1023.18 54.3314 1021.59 51.8895 1020.38 49.0814C1019.28 46.1512 1018.73 42.9157 1018.73 39.375Z" fill="#DBDCED"/>
</svg>
