<svg width="90" height="63" viewBox="0 0 90 63" fill="none" xmlns="http://www.w3.org/2000/svg">
<path d="M0 39.375C0.121704 35.2238 0.608519 31.439 1.46045 28.0203C2.31237 24.4797 3.52941 21.1831 5.11156 18.1308C6.81542 14.9564 8.82353 11.9651 11.1359 9.15698C13.57 6.22674 16.3083 3.17442 19.3509 0L32.86 6.40988C31.8864 7.38663 30.9736 8.54651 30.1217 9.88953C29.3915 10.9884 28.6004 12.3924 27.7485 14.1017C26.8966 15.811 26.1055 17.7035 25.3753 19.7791C30.4868 20.7558 34.7464 23.2587 38.1542 27.2878C41.5619 31.3169 43.2657 35.9564 43.2657 41.2064C43.2657 44.2587 42.6572 47.1279 41.4402 49.814C40.3448 52.3779 38.8235 54.6366 36.8763 56.5901C34.929 58.5436 32.6166 60.1308 29.9391 61.3517C27.3834 62.4506 24.5842 63 21.5416 63C18.6207 63 15.8215 62.4506 13.144 61.3517C10.5882 60.1308 8.33671 58.4826 6.38945 56.407C4.44219 54.3314 2.86004 51.8895 1.643 49.0814C0.547667 46.1512 0 42.9157 0 39.375Z" fill="#DBDCED"/>
<path d="M46.7343 39.375C46.856 35.2238 47.3428 31.439 48.1947 28.0203C49.0467 24.4797 50.2637 21.1831 51.8458 18.1308C53.5497 14.9564 55.5578 11.9651 57.8702 9.15698C60.3043 6.22674 63.0426 3.17442 66.0852 0L79.5943 6.40988C78.6207 7.38663 77.7079 8.54651 76.856 9.88953C76.1258 10.9884 75.3347 12.3924 74.4828 14.1017C73.6308 15.811 72.8398 17.7035 72.1095 19.7791C77.2211 20.7558 81.4807 23.2587 84.8884 27.2878C88.2961 31.3169 90 35.9564 90 41.2064C90 44.2587 89.3915 47.1279 88.1744 49.814C87.0791 52.3779 85.5578 54.6366 83.6105 56.5901C81.6633 58.5436 79.3509 60.1308 76.6734 61.3517C74.1176 62.4506 71.3185 63 68.2759 63C65.355 63 62.5558 62.4506 59.8783 61.3517C57.3225 60.1308 55.071 58.4826 53.1237 56.407C51.1765 54.3314 49.5943 51.8895 48.3773 49.0814C47.2819 46.1512 46.7343 42.9157 46.7343 39.375Z" fill="#DBDCED"/>
</svg>
