<svg xmlns="http://www.w3.org/2000/svg" width="200" height="123.853" viewBox="0 0 200 123.853">
  <g id="cyberghost-vpn-secure-wi-fi-3" transform="translate(-1419.478 -4377.93)">
    <g id="Group_19512" data-name="Group 19512" transform="matrix(0.985, -0.174, 0.174, 0.985, 1419.478, 4396.129)">
      <g id="Group_19421" data-name="Group 19421" transform="translate(43.365 86.96)">
        <path id="Path_99028" data-name="Path 99028" d="M13.935,12.424c-2.62,2.62-9.35,1.876-11.97-.744a6.709,6.709,0,0,1,0-9.488c2.62-2.62,9.8-3.048,12.422-.428S16.556,9.8,13.935,12.424Z" transform="translate(0 0)" fill="#676a83"/>
        <circle id="Ellipse_204" data-name="Ellipse 204" cx="6.709" cy="6.709" r="6.709" transform="translate(3.577 0.227)" fill="#a8adc6"/>
      </g>
      <g id="Group_19422" data-name="Group 19422" transform="translate(20.412 36.446)">
        <path id="Path_99029" data-name="Path 99029" d="M32.517.14C52.409-2.114,66.859,23.524,65.288,30.46c-.434,1.92-3.845.156-4.561-.144C56.3,29.326,47.854,8.431,31.735,9.712,15.529,11,9.379,23.247,4.8,27.226c-.968.839-2.387-.477-3.649-.565C-3.2,24.865,4.269,2.323,32.517.14Z" transform="translate(0 0)" fill="#676a83"/>
        <path id="Path_99030" data-name="Path 99030" d="M33.571.156C53.463-2.1,65.131,20.656,63.54,27.588,60.779,39.609,51.9,8.21,32.789,9.728,13.163,11.289,6.769,25.808,2.206,26.677-4.941,28.038,5.216,2.461,33.571.156Z" transform="translate(2.666 0.985)" fill="#a8adc6"/>
      </g>
      <g id="Group_19423" data-name="Group 19423" transform="translate(33.272 61.335)">
        <path id="Path_99031" data-name="Path 99031" d="M18.231.078c11.153-1.264,19.256,13.111,18.375,17-.245,1.076-2.158.087-2.559-.081-2.482-.555-7.217-12.272-16.255-11.553-9.087.723-12.535,7.589-15.1,9.819-.542.472-1.338-.267-2.046-.316C-1.794,13.941,2.394,1.3,18.231.078Z" transform="translate(0 0)" fill="#676a83"/>
        <path id="Path_99032" data-name="Path 99032" d="M18.823.088c11.153-1.265,17.695,11.493,16.8,15.38C34.077,22.209,29.1,4.6,18.385,5.455c-11,.875-14.59,9.015-17.148,9.5C-2.77,15.721,2.924,1.378,18.823.088Z" transform="translate(1.495 0.553)" fill="#a8adc6"/>
      </g>
      <g id="Group_19424" data-name="Group 19424" transform="translate(0 0)">
        <path id="Path_99033" data-name="Path 99033" d="M52.1.224c31.875-3.613,55.031,37.47,52.512,48.585-.7,3.075-6.162.251-7.309-.229C90.213,46.99,76.681,13.509,50.85,15.562,24.883,17.626,15.03,37.25,7.689,43.626c-1.55,1.346-3.824-.764-5.845-.905C-5.13,39.843,6.84,3.721,52.1.224Z" fill="#676a83"/>
        <path id="Path_99034" data-name="Path 99034" d="M53.8.251c31.875-3.613,50.57,32.848,48.02,43.955C97.392,63.47,83.156,13.155,52.541,15.589c-31.447,2.5-41.694,25.765-49.006,27.158C-7.917,44.927,8.358,3.942,53.8.251Z" transform="translate(4.271 1.579)" fill="#a8adc6"/>
      </g>
    </g>
    <g id="Group_19511" data-name="Group 19511" transform="translate(1519.403 4417.926)">
      <path id="Path_99201" data-name="Path 99201" d="M540.186,1667.021c.773.822,34.115,9.717,34.115,9.717l-1.948,6.868-35.645-7.641Z" transform="translate(-527.855 -1634.9)" fill="#323232"/>
      <path id="Path_99205" data-name="Path 99205" d="M409.522,1615.881a26.853,26.853,0,0,1,53.7-.311q0,.3,0,.6c-.078,14.826,6.059,41.67-8.78,41.592C388.28,1657.4,409.44,1630.7,409.522,1615.881Zm32.7,15.7c5.5.029,9.865-6.2,10.017-13.9s-2.248-16.417-8.356-17.461c-7.518-1.422-11.484,9.651-11.509,17.358s4.365,13.971,9.848,14Zm-23.055-4.743c4.336.025,7.888-4.9,7.92-10.995s-2.5-13.954-6.844-13.975-8.854,7.809-8.886,13.893,3.461,11.052,7.81,11.073Z" transform="translate(-364.341 -1588.873)" fill="#323232"/>
      <path id="Path_99206" data-name="Path 99206" d="M473.383,1676.2l-25.566-4.217-19.207-2.261,16.626,25.4Z" transform="translate(-382.504 -1636.49)" fill="#323232"/>
      <path id="Path_99209" data-name="Path 99209" d="M601.239,1640.379c3.083-10.859,4.378-16.523,6.634-20.44,1.081-8.188-10.991-1.726-12.282,6.663-4.11-1.43-4.11-1.488-8.484-2.852-3.827-1.406-7.353,6.391-5.343,7.234-1.644,1.784-3.177,5.865-1.278,7.81-1.315.723-2.927,5.754-.234,7.916C580.869,1647.206,594.593,1655.435,601.239,1640.379Z" transform="translate(-578.793 -1604.945)" fill="#323232"/>
      <path id="Path_1142-4" data-name="Path 1142-4" d="M419.119,1776.37c0,2.553,10.654,4.612,23.794,4.612s23.795-2.055,23.795-4.612-8.919-3.7-22.06-3.7S419.119,1773.822,419.119,1776.37Z" transform="translate(-371.928 -1697.125)" fill="#d8deec" style="isolation: isolate"/>
    </g>
    <path id="Path_1142-4-2" data-name="Path 1142-4" d="M419.119,1774.718c0,1.412,5.9,2.552,13.168,2.552s13.168-1.137,13.168-2.552-4.936-2.047-12.208-2.047S419.119,1773.308,419.119,1774.718Z" transform="translate(1053.993 2718.679)" fill="#d8deec" style="isolation: isolate"/>
  </g>
</svg>
