<svg xmlns="http://www.w3.org/2000/svg" width="38.631" height="36.364" viewBox="0 0 38.631 36.364">
  <g id="Group_12063" data-name="Group 12063" transform="translate(0 0.001)">
    <path id="Path_42176" data-name="Path 42176" d="M326.171,238.433c-.7,3.65-1.256,9.874,2.515,12.23,3.685,2.3,7.382-2.176,9.014-4.946,2.594-4.4,2.848-10.98-2.029-14.066C330.491,228.374,327.026,233.989,326.171,238.433Zm3.848,1.484c.417-1.366,1.81-4.883,3.9-3.5,1.979,1.308,1.125,4.456.341,6.174-.492,1.078-2.065,4.42-3.825,3.309C328.654,244.776,329.561,241.415,330.018,239.917Z" transform="translate(-303.451 -214.937)"/>
    <path id="Path_42177" data-name="Path 42177" d="M.385,14.453c1.169,4.455,4.854,7.635,9.548,6.163,4.939-1.548,7.285-6.714,7.574-11.559.153-2.567-.244-5.458-2.162-7.345C13.4-.2,10.534-.333,8.051.446A11.562,11.562,0,0,0,.385,14.453Zm8.133-9c2.576-.863,3.558,2.3,3.592,4.2.037,2.063-.308,5.088-2.653,5.862-2.38.786-3.345-2.172-3.644-3.887C5.417,9.365,6.017,6.291,8.518,5.453Z" transform="translate(0)"/>
    <path id="Path_42178" data-name="Path 42178" d="M166.455,14.62a40.383,40.383,0,0,1,8.581,4.59c-11.546,5.318-19.6,15.633-23.954,27.383a19.717,19.717,0,0,0-4.692,1.138C149.247,34.825,156.025,22.88,166.455,14.62Z" transform="translate(-136.406 -13.623)"/>
  </g>
</svg>
