<svg width="19" height="18" viewBox="0 0 19 18" fill="none" xmlns="http://www.w3.org/2000/svg">
<path d="M9.8096 4.50041e-06C8.02996 0.00178415 6.29079 0.531137 4.81193 1.52115C3.33307 2.51116 2.18092 3.91739 1.50111 5.56208C0.821302 7.20677 0.644356 9.01609 0.992639 10.7613C1.34092 12.5066 2.1988 14.1094 3.45783 15.3671C4.71686 16.6249 6.32052 17.4812 8.0661 17.8277C9.81168 18.1743 11.6208 17.9955 13.2648 17.3141C14.9088 16.6326 16.3139 15.479 17.3025 13.9992C18.291 12.5194 18.8186 10.7797 18.8186 9C18.8186 7.81735 18.5855 6.64629 18.1327 5.55377C17.6798 4.46126 17.0161 3.4687 16.1794 2.63286C15.3427 1.79701 14.3495 1.13427 13.2565 0.682504C12.1636 0.230741 10.9923 -0.00117815 9.8096 4.50041e-06ZM16.0466 5.4H13.3916C13.1114 4.28552 12.6958 3.20952 12.1541 2.196C13.7941 2.76214 15.1758 3.89939 16.0466 5.4ZM9.81861 1.836C10.5746 2.92671 11.1547 4.12935 11.5376 5.4H8.09961C8.48253 4.12935 9.0626 2.92671 9.81861 1.836ZM2.85261 10.8C2.54062 9.62028 2.54062 8.37972 2.85261 7.2H5.89011C5.8132 7.79699 5.77262 8.3981 5.76861 9C5.77411 9.602 5.81619 10.2031 5.89461 10.8H2.85261ZM3.59061 12.6H6.24561C6.52585 13.7145 6.94143 14.7905 7.48311 15.804C5.84132 15.241 4.45871 14.1029 3.59061 12.6ZM6.24561 5.4H3.59061C4.45981 3.89622 5.84415 2.75806 7.48761 2.196C6.94438 3.20931 6.52728 4.28531 6.24561 5.4ZM9.81861 16.164C9.0626 15.0733 8.48253 13.8707 8.09961 12.6H11.5376C11.1547 13.8707 10.5746 15.0733 9.81861 16.164ZM11.9246 10.8H7.71261C7.6237 10.204 7.57559 9.60258 7.56861 9C7.57523 8.39741 7.62334 7.79599 7.71261 7.2H11.9246C12.0139 7.79599 12.062 8.39741 12.0686 9C12.0616 9.60258 12.0135 10.204 11.9246 10.8ZM12.1496 15.804C12.6913 14.7905 13.1069 13.7145 13.3871 12.6H16.0421C15.1713 14.1006 13.7896 15.2379 12.1496 15.804ZM13.7426 10.8C13.821 10.2031 13.8631 9.602 13.8686 9C13.8631 8.398 13.821 7.7969 13.7426 7.2H16.7801C17.0921 8.37972 17.0921 9.62028 16.7801 10.8H13.7426Z" fill="#F8F8F9"/>
</svg>
