<svg xmlns="http://www.w3.org/2000/svg" width="11.872" height="14.03" viewBox="0 0 11.872 14.03"><g transform="translate(0 0)"><path d="M37.408,153.884a.838.838,0,0,0-.616.253.828.828,0,0,0-.253.607v3.626a.863.863,0,0,0,.868.868.824.824,0,0,0,.611-.253.845.845,0,0,0,.249-.615v-3.626a.864.864,0,0,0-.86-.86Z" transform="translate(-36.539 -149.339)" fill="#838495"/><path d="M106.494,164.924a.921.921,0,0,0,.928.927h.624l.009,1.914a.838.838,0,0,0,.253.616.828.828,0,0,0,.607.253.864.864,0,0,0,.868-.868v-1.914h1.164v1.914a.868.868,0,1,0,1.737,0v-1.914h.632a.885.885,0,0,0,.649-.27.9.9,0,0,0,.27-.658v-5.616h-7.74Z" transform="translate(-104.428 -154.603)" fill="#838495"/><path d="M111.165,1.289l.6-1.1a.111.111,0,0,0-.042-.169.117.117,0,0,0-.169.051l-.607,1.113a4.232,4.232,0,0,0-3.39,0L106.949.067a.117.117,0,0,0-.169-.051.111.111,0,0,0-.042.169l.6,1.1a3.693,3.693,0,0,0-1.45,1.294,3.269,3.269,0,0,0-.54,1.817h7.8a3.268,3.268,0,0,0-.54-1.817A3.707,3.707,0,0,0,111.165,1.289ZM107.7,2.9a.316.316,0,0,1-.232.1.3.3,0,0,1-.228-.1.336.336,0,0,1,0-.464.3.3,0,0,1,.228-.1.328.328,0,0,1,.232.561Zm3.554,0a.3.3,0,0,1-.228.1.329.329,0,0,1,0-.658.3.3,0,0,1,.228.1.336.336,0,0,1,0,.464Z" transform="translate(-103.315 0.001)" fill="#838495"/><path d="M381.479,154.133a.845.845,0,0,0-.615-.249.835.835,0,0,0-.607.249.824.824,0,0,0-.253.611v3.626a.838.838,0,0,0,.253.615.827.827,0,0,0,.607.253.864.864,0,0,0,.869-.868v-3.626A.824.824,0,0,0,381.479,154.133Z" transform="translate(-369.86 -149.339)" fill="#838495"/></g></svg>