<svg xmlns="http://www.w3.org/2000/svg" width="15" height="10" viewBox="0 0 15 10"><g transform="translate(-0.003 -9.052)"><path d="M13.52,10c-.043,0-.091,0-.144-.006-.823-.069-2.558-2.117-2.753-2.35A1.057,1.057,0,0,0,9.9,7.3H5.1a1.071,1.071,0,0,0-.723.341c-.2.236-1.93,2.283-2.753,2.353-.052,0-.1.006-.145.006C.569,10,.256,9.245.155,8.611A10.232,10.232,0,0,1,1.339,1.77,3.151,3.151,0,0,1,4.061,0,4.161,4.161,0,0,1,6.309.773a1.519,1.519,0,0,0,.794.27l.8,0a1.515,1.515,0,0,0,.792-.27A4.171,4.171,0,0,1,10.941,0a3.153,3.153,0,0,1,2.723,1.77,10.272,10.272,0,0,1,1.182,6.841C14.7,9.507,14.234,10,13.52,10Zm-3.1-6.066a.818.818,0,1,0,.814.818A.817.817,0,0,0,10.417,3.934ZM4.124,3a1,1,0,1,0,.995,1A1,1,0,0,0,4.124,3Zm8.319-.107a.818.818,0,1,0,.816.818A.816.816,0,0,0,12.442,2.892ZM10.417,1.683a.818.818,0,1,0,.814.818A.817.817,0,0,0,10.417,1.683Z" transform="translate(0.003 9.052)" fill="#838495"/></g></svg>