<svg xmlns="http://www.w3.org/2000/svg" width="14" height="14" viewBox="0 0 14 14"><path d="M13.937,6.4h0a1.492,1.492,0,0,0-.041-.2s-.05.057-.136.167a4.563,4.563,0,0,0-.167-.891,5.97,5.97,0,0,0-.425-1.058,4.317,4.317,0,0,0-.389-.645q-.081-.119-.163-.224c-.258-.408-.552-.659-.9-1.133a3.4,3.4,0,0,1-.448-1.177,4.568,4.568,0,0,0-.217.773c-.353-.342-.656-.588-.841-.755C9.311.43,9.415,0,9.415,0h0s-1.7,1.844-.963,3.762A3.678,3.678,0,0,0,9.718,5.4,4.6,4.6,0,0,1,11.6,7.569a3.748,3.748,0,0,0-1.42-1.458,3.23,3.23,0,0,1,.271,1.317,3.176,3.176,0,0,1-3.224,3.126,3.268,3.268,0,0,1-.714-.079,3.05,3.05,0,0,1-.8-.263,3.2,3.2,0,0,1-.954-.856l0-.009.059.022a3.061,3.061,0,0,0,.407.105,2.6,2.6,0,0,0,1.619-.184c.511-.272.818-.479,1.067-.4h0c.244.075.439-.154.262-.4a1.357,1.357,0,0,0-1.289-.487c-.511.07-.977.426-1.646.083a1.159,1.159,0,0,1-.127-.07c-.045-.026.145.04.1.009a3.976,3.976,0,0,1-.421-.241c-.009-.009.1.031.09.022a1.613,1.613,0,0,1-.439-.43.739.739,0,0,1-.032-.68.6.6,0,0,1,.271-.246c.086.04.14.07.14.07s-.041-.07-.059-.105c.009,0,.014,0,.023,0a2.939,2.939,0,0,1,.33.167.486.486,0,0,1,.154.132s.032-.013.009-.075a.4.4,0,0,0-.158-.184h.009a1.274,1.274,0,0,1,.194.119.908.908,0,0,0,.077-.4.519.519,0,0,0-.032-.22c-.023-.044.014-.061.054-.013a.485.485,0,0,0-.036-.105v0h0a.224.224,0,0,1,.036-.04.862.862,0,0,1,.1-.079,4.651,4.651,0,0,1,.665-.329c.185-.079.344-.14.375-.158a.942.942,0,0,0,.131-.1.865.865,0,0,0,.3-.5C7,4.6,7,4.574,7,4.548V4.513H7v0H7v0H7c-.027-.1-.2-.171-1.121-.255a.818.818,0,0,1-.66-.61v0a.669.669,0,0,0-.036.1c.014-.031.023-.066.036-.1V3.635a2.292,2.292,0,0,1,.9-1.084c.023-.018-.095,0-.072-.013a2.265,2.265,0,0,1,.24-.1c.041-.018-.176-.1-.366-.079a.933.933,0,0,0-.344.079c.045-.04.181-.088.149-.088a2.323,2.323,0,0,0-.7.255.137.137,0,0,1,.014-.061,1.089,1.089,0,0,0-.434.325.438.438,0,0,0,0-.075,1.146,1.146,0,0,0-.217.2l0,0A2.893,2.893,0,0,0,2.8,2.867l0,0h0a1.225,1.225,0,0,1-.28-.307H2.514l-.009-.009c-.032-.053-.068-.105-.1-.171-.027-.044-.054-.1-.081-.149a0,0,0,0,0,0,0c-.009,0-.018.048-.027.035h0a1.892,1.892,0,0,1-.131-.742l0,0a.825.825,0,0,0-.321.408c-.032.061-.045.092-.063.127V2.041a.668.668,0,0,0,.014-.088l-.009.009a.811.811,0,0,0-.113.162,1.346,1.346,0,0,0-.068.171c0,.009,0-.009,0-.026s0-.057,0-.048l-.009.018a4.158,4.158,0,0,0-.362,1.335,1.312,1.312,0,0,0-.018.233v.009A3.219,3.219,0,0,0,.832,4.3,6.811,6.811,0,0,0,.05,6.155a4.682,4.682,0,0,1,.416-.711A6.481,6.481,0,0,0,0,7.854a6.479,6.479,0,0,1,.2-.716A5.917,5.917,0,0,0,.769,9.974a6.7,6.7,0,0,0,2.691,2.963h0a6.047,6.047,0,0,0,1.569.729c.072.026.149.053.222.075a.463.463,0,0,1-.068-.031A7.256,7.256,0,0,0,7.217,14c2.437,0,3.247-.9,3.319-.992h0a1.2,1.2,0,0,0,.289-.378h0c.045-.018.095-.04.145-.061L11,12.556l.054-.026a5.02,5.02,0,0,0,1.031-.628,2.4,2.4,0,0,0,.959-1.361h0a.838.838,0,0,0,.014-.628c.027-.04.05-.079.077-.123A5.446,5.446,0,0,0,14,7.077V6.993A4,4,0,0,0,13.937,6.4Z" fill="#838495"/></svg>