<svg xmlns="http://www.w3.org/2000/svg" width="14" height="11.714" viewBox="0 0 14 11.714"><path d="M3.779,12.754a.583.583,0,0,1,.554-1.027,5.633,5.633,0,0,0,2.172.647,10.15,10.15,0,0,1,.264-1.834H5.263V9.957c0-1.763,1.2-4.81,1.717-6.039H1.167A1.17,1.17,0,0,0,0,5.085v9.381a1.17,1.17,0,0,0,1.167,1.167h5.8a7.83,7.83,0,0,1-.45-2.085A6.789,6.789,0,0,1,3.779,12.754ZM3.555,7.081a.5.5,0,0,1,1,0V7.81a.5.5,0,1,1-1,0Z" transform="translate(0 -3.918)" fill="#838495"/><path d="M28.553,3.918H23.969a26.309,26.309,0,0,0-1.777,5.456h1.914l-.3.788a8.61,8.61,0,0,0-.412,2.194,5.618,5.618,0,0,0,2.1-.688.583.583,0,1,1,.577,1.014,6.777,6.777,0,0,1-2.662.846,6.522,6.522,0,0,0,.421,1.845.582.582,0,0,1,.037.26h4.684a1.17,1.17,0,0,0,1.167-1.167V5.085A1.169,1.169,0,0,0,28.553,3.918Zm-2.267,3.9a.5.5,0,0,1-1,0V7.09a.5.5,0,0,1,1,0Z" transform="translate(-15.719 -3.918)" fill="#838495"/></svg>
