<svg xmlns="http://www.w3.org/2000/svg" width="15.76" height="30" viewBox="0 0 15.76 30"><path d="M7.708,30h0a.581.581,0,0,1-.319-.16L5.418,27.818a1.194,1.194,0,0,1-.251-.38,1.245,1.245,0,0,1-.1-.45V15.245A7.876,7.876,0,0,1,1.346,3.474,7.9,7.9,0,0,1,4.812.619,7.84,7.84,0,0,1,6.292.16a7.955,7.955,0,0,1,3.176,0,7.841,7.841,0,0,1,2.818,1.186A7.9,7.9,0,0,1,15.14,4.812,7.848,7.848,0,0,1,15.6,6.292a7.939,7.939,0,0,1,.16,1.588,7.884,7.884,0,0,1-5.922,7.635L12.751,18.6a.731.731,0,0,1,.253.513.628.628,0,0,1-.174.486L9.764,22.761l2.187,2.248a.724.724,0,0,1,.058.993l-.031.034L8.3,29.811a.619.619,0,0,1-.268.163c-.069.008-.14.012-.209.017h0ZM5.191,3.94a1.948,1.948,0,0,0-1.036.306,2.857,2.857,0,0,0-.845.835,4.3,4.3,0,0,0-.569,1.238,5.618,5.618,0,0,0,0,3.033A4.3,4.3,0,0,0,3.31,10.59a2.859,2.859,0,0,0,.845.835,1.9,1.9,0,0,0,2.07,0,2.865,2.865,0,0,0,.845-.835,4.315,4.315,0,0,0,.57-1.238,5.613,5.613,0,0,0,0-3.033,4.315,4.315,0,0,0-.57-1.238,2.862,2.862,0,0,0-.845-.835A1.943,1.943,0,0,0,5.191,3.94Zm6.136.338a1.535,1.535,0,0,0-.818.242,2.263,2.263,0,0,0-.668.661,3.4,3.4,0,0,0-.451.98,4.435,4.435,0,0,0,0,2.4,3.406,3.406,0,0,0,.451.98,2.263,2.263,0,0,0,.668.66,1.5,1.5,0,0,0,1.636,0,2.261,2.261,0,0,0,.668-.66,3.416,3.416,0,0,0,.45-.98,4.446,4.446,0,0,0,0-2.4,3.411,3.411,0,0,0-.45-.98,2.263,2.263,0,0,0-.668-.661A1.536,1.536,0,0,0,11.327,4.278Z" transform="translate(0 0)" fill="#838495"/></svg>