<svg xmlns="http://www.w3.org/2000/svg" width="24.826" height="28" viewBox="0 0 24.826 28"><g transform="translate(-1577.416 -350.944)"><g transform="translate(1577.416 356.042)"><path d="M11.416,22.9a11.466,11.466,0,0,1-2.3-.233,11.335,11.335,0,0,1-4.082-1.723A11.466,11.466,0,0,1,6.972.9,11.333,11.333,0,0,1,9.115.233,11.466,11.466,0,0,1,11.416,0a2.255,2.255,0,0,1,.56.07,2.377,2.377,0,0,1,.511.2,3.493,3.493,0,0,1,.9.706A13.158,13.158,0,0,1,14.9,3.1c.3.48.6.976.92,1.41a6.912,6.912,0,0,0,.492.606,3.934,3.934,0,0,0,.533.489,11.454,11.454,0,0,0,1.264.814c.423.238.843.449,1.249.653a14.9,14.9,0,0,1,1.722.957,5.555,5.555,0,0,1-.618.046H11.636a4.925,4.925,0,0,0-2.806.876,5.081,5.081,0,0,0-.743.627A5.158,5.158,0,0,0,6.72,12.175a5.294,5.294,0,0,0,0,2.068,5.153,5.153,0,0,0,1.368,2.594,5.081,5.081,0,0,0,.743.627,4.986,4.986,0,0,0,.852.473,4.908,4.908,0,0,0,1.953.4h8.9a11.476,11.476,0,0,1-3.944,3.32A11.339,11.339,0,0,1,11.416,22.9Z" transform="translate(0 0)" fill="#838495"/><g transform="translate(6.992 9.891)"><path d="M821.112,924.7c.97,1.062,4.673,1.413,7.309.8a12.348,12.348,0,0,0,4.26-2.05,5.65,5.65,0,0,0,2.163-3.352,6.283,6.283,0,0,0-.248-3.85h0a7.226,7.226,0,0,0-1.031-1.8,4.608,4.608,0,0,0-6.723-.373c-1.693,1.691-2.109,4.145-.221,5.509a2.818,2.818,0,0,0,4.115-.858,1.6,1.6,0,0,0,.167-1.406.745.745,0,0,0-1.444.046c-.014.05-.023.1-.032.153-.081.227-.278.683-1.3.638-.871-.039-1.158-1.963.667-2.826a2.48,2.48,0,0,1,3.292,1.636,3.14,3.14,0,0,1-.152,2.243,3.423,3.423,0,0,1-1.523,1.54,6.469,6.469,0,0,1-2.534.428,18.51,18.51,0,0,1-5.061-.626,1.469,1.469,0,0,0-.48-.02C820.791,920.65,820.221,923.723,821.112,924.7Z" transform="translate(-820.689 -912.798)" fill="#838495"/></g></g><g transform="translate(1588.642 350.944)"><path d="M13.6,13.171H0V.008H0C.045.005.161,0,.34,0A13.873,13.873,0,0,1,3.073.3a13.757,13.757,0,0,1,4.2,1.6,13.163,13.163,0,0,1,3.092,2.6,13.093,13.093,0,0,1,2.165,3.428,13.681,13.681,0,0,1,.819,2.636A13.191,13.191,0,0,1,13.6,13.1c0,.023,0,.044,0,.067h0ZM6.5,4.783a1.521,1.521,0,0,0-.79.226,2.152,2.152,0,0,0-.645.616,3.542,3.542,0,0,0-.594,2.031,3.542,3.542,0,0,0,.594,2.031,2.152,2.152,0,0,0,.645.616,1.494,1.494,0,0,0,1.579,0,2.152,2.152,0,0,0,.645-.616,3.542,3.542,0,0,0,.594-2.031,3.542,3.542,0,0,0-.594-2.031,2.152,2.152,0,0,0-.645-.616A1.521,1.521,0,0,0,6.5,4.783Z" transform="translate(0)" fill="#838495"/></g></g></svg>