<svg  xmlns="http://www.w3.org/2000/svg" width="11.957" height="14" viewBox="0 0 11.957 14"><path d="M33.843,11.241c-.411-.168-.586-.391-.569-.724a1.11,1.11,0,0,0-.308-.786,3.406,3.406,0,0,0,0-1.8A15.574,15.574,0,0,0,31.047,4.8a2.688,2.688,0,0,1-.379-1.6,4.873,4.873,0,0,0-.359-1.952A2.019,2.019,0,0,0,28.389,0a2.628,2.628,0,0,0-1.46.445c-.839.579-.728,1.841-.654,2.676.01.114.02.222.025.315a4.138,4.138,0,0,1-.054,1.38,5.664,5.664,0,0,1-.419.587c-.2.267-.432.569-.62.851a6.666,6.666,0,0,0-.581,1.359,6.514,6.514,0,0,1-.367.92,1.253,1.253,0,0,0-.122.941.967.967,0,0,0-.31.393c-.125.266-.378.409-.9.511a.7.7,0,0,0-.5.3.857.857,0,0,0,.005.685,1.066,1.066,0,0,1-.07.772c-.024.074-.052.157-.08.249a.449.449,0,0,0,.047.392c.2.3.779.411,1.376.482a5.3,5.3,0,0,1,1.124.323,5.277,5.277,0,0,0,1.1.317,1.25,1.25,0,0,0,.156.01.915.915,0,0,0,.837-.491,9.3,9.3,0,0,1,1.509-.178,6.553,6.553,0,0,1,1.5.154,1.207,1.207,0,0,0,.452.492A1.1,1.1,0,0,0,30.89,14h0a1.226,1.226,0,0,0,.894-.369A8.006,8.006,0,0,1,33.4,12.6c.124-.067.24-.13.342-.187a.764.764,0,0,0,.467-.678A.573.573,0,0,0,33.843,11.241Zm-6.907-.062c-.039-.274-.391-.545-.8-.859a2.824,2.824,0,0,1-.815-.795,2.4,2.4,0,0,1,.25-1.864,4.732,4.732,0,0,0,.381-.919,3.3,3.3,0,0,1,.4-.908,2.317,2.317,0,0,0,.476-1.156,1.443,1.443,0,0,0,.851.463.5.5,0,0,0,.137-.018,4.6,4.6,0,0,0,.816-.411,3.484,3.484,0,0,1,.693-.348A19.348,19.348,0,0,1,30.837,8.13a3.991,3.991,0,0,1-.056,1.436,1.057,1.057,0,0,0-.141-.01c-.331,0-.418.181-.441.288a11.677,11.677,0,0,0-.066,1.377,2.737,2.737,0,0,1-1.593,1,6.9,6.9,0,0,1-.982.077,3.317,3.317,0,0,1-.484-.03l-.436-.5A.53.53,0,0,0,26.936,11.179Zm.554-8.234-.04.019a.813.813,0,0,0-.009-.09.509.509,0,0,0-.432-.473.305.305,0,0,0-.047,0,.362.362,0,0,0-.267.239c.045-.282.205-.491.395-.491.223,0,.411.3.411.655A.969.969,0,0,1,27.49,2.945Zm1.73.211a.7.7,0,0,0,.031-.208.523.523,0,0,0-.465-.574.528.528,0,0,0-.462.574q0,.032,0,.065L28.287,3a.878.878,0,0,1-.044-.276.565.565,0,1,1,1.1,0A.822.822,0,0,1,29.219,3.156ZM29,3.905c0,.019-.014.028-.116.081-.052.027-.116.06-.2.11l-.054.033a4.991,4.991,0,0,1-.861.457c-.094.013-.151-.024-.281-.112l-.094-.063a1.1,1.1,0,0,1-.4-.389c.076-.059.266-.207.363-.294a1.048,1.048,0,0,1,.493-.306h.015a4.906,4.906,0,0,1,.607.217c.1.038.179.071.237.092A.568.568,0,0,1,29,3.905Zm1.65,8.555a6.8,6.8,0,0,0,.2-1.478c0-.085-.012-.178-.019-.267a2.459,2.459,0,0,1-.013-.49l.014-.005a.832.832,0,0,0,.389.791.861.861,0,0,0,.346.067,1.413,1.413,0,0,0,.878-.324,1.6,1.6,0,0,0,.223-.292.353.353,0,0,1,.015.138.988.988,0,0,0,.426.89l.043.022c.1.055.381.2.385.269a.061.061,0,0,1-.018.022,3.991,3.991,0,0,1-.549.308,4.8,4.8,0,0,0-1.105.679,1.51,1.51,0,0,1-.843.527.222.222,0,0,1-.067-.009C30.731,13.238,30.548,12.918,30.646,12.46Zm-7.579-1.192A.623.623,0,0,1,23.046,11c.014-.06.311-.125.438-.152a1.705,1.705,0,0,0,.483-.152.98.98,0,0,0,.329-.441.686.686,0,0,1,.184-.276.039.039,0,0,1,.021,0c.13,0,.4.273.559.517.04.062.114.185.2.328a10.475,10.475,0,0,0,.787,1.207c.164.176.43.515.365.805a.882.882,0,0,1-.363.449.372.372,0,0,1-.081.007,5.162,5.162,0,0,1-1.412-.447l-.055-.023a4.474,4.474,0,0,0-.873-.195,2.852,2.852,0,0,1-.676-.152c-.048-.054.008-.228.057-.383a2.482,2.482,0,0,0,.092-.345A1.257,1.257,0,0,0,23.067,11.268Z" transform="translate(-22.257)" fill="#838495"/></svg>