<svg xmlns="http://www.w3.org/2000/svg" width="14" height="14" viewBox="0 0 14 14"><path d="M10,14H4a4,4,0,0,1-4-4V4A4,4,0,0,1,4,0h6a4,4,0,0,1,4,4v6A4.005,4.005,0,0,1,10,14ZM2.3,8.518a.077.077,0,0,0-.075.048.1.1,0,0,0,.037.11A6.913,6.913,0,0,0,6.9,10.449a6.7,6.7,0,0,0,3.8-1.163.148.148,0,0,0,.07-.164.144.144,0,0,0-.141-.093.2.2,0,0,0-.078.017,9.282,9.282,0,0,1-3.546.726A9.375,9.375,0,0,1,2.363,8.538.131.131,0,0,0,2.3,8.518Zm8.391.18c.246,0,.4.033.448.1.132.17-.15.872-.27,1.173a.081.081,0,0,0,0,.076.052.052,0,0,0,.045.022.135.135,0,0,0,.084-.036,1.811,1.811,0,0,0,.58-1.569,1.062,1.062,0,0,0-.621-.13,1.878,1.878,0,0,0-1.044.285c-.045.031-.067.072-.058.1a.062.062,0,0,0,.065.037h.017A6.7,6.7,0,0,1,10.688,8.7ZM6.961,5.14a1.116,1.116,0,0,0-.873.37,1.458,1.458,0,0,0-.294.962,1.461,1.461,0,0,0,.276.949,1.165,1.165,0,0,0,.964.377,2.043,2.043,0,0,0,.778-.153C7.9,7.615,7.9,7.573,7.9,7.5V7.36c0-.058-.021-.087-.063-.087a.165.165,0,0,0-.05.009,2.328,2.328,0,0,1-.684.122.838.838,0,0,1-.644-.235.981.981,0,0,1-.184-.59h1.6c.074,0,.083-.242.086-.346A1.09,1.09,0,0,0,7.7,5.408.986.986,0,0,0,6.961,5.14Zm2.322-.625c-.079,0-.115.031-.121.1L9.1,5.225l-.366.045c-.074.007-.1.042-.1.122v.113a.088.088,0,0,0,.1.1h.362V7.079a.615.615,0,0,0,.692.679,1.92,1.92,0,0,0,.408-.042c.152-.044.152-.07.152-.138V7.4c0-.054-.021-.08-.064-.08a.156.156,0,0,0-.035,0l-.023,0a2.159,2.159,0,0,1-.289.033c-.325-.022-.352-.125-.352-.439V5.6h.648c.069,0,.1-.028.1-.1V5.311c0-.068-.03-.1-.1-.1H9.577v-.6a.088.088,0,0,0-.1-.1Zm1.381.7a.075.075,0,0,0-.066.026.1.1,0,0,0,0,.089l.907,2.29a.13.13,0,0,0,.137.1h.312c.065,0,.094-.037.122-.1l.908-2.291a.091.091,0,0,0,.006-.085.087.087,0,0,0-.078-.028h-.3c-.074,0-.1.033-.131.1L11.8,7.269l-.687-1.953c-.024-.06-.052-.1-.116-.1Zm-6.29,0c-.07,0-.1.028-.1.1V7.624c0,.069.028.1.1.1h.292c.069,0,.1-.028.1-.1V5.876a1.046,1.046,0,0,1,.729-.236l.055,0c.024,0,.047,0,.069,0,.045,0,.1-.008.1-.069V5.293c0-.07-.048-.1-.161-.1a.988.988,0,0,0-.811.386L4.7,5.3c-.016-.072-.06-.078-.113-.078Zm-1.136,0c-.069,0-.1.028-.1.1V7.624c0,.069.028.1.1.1h.293c.07,0,.1-.028.1-.1V5.316a.088.088,0,0,0-.1-.1ZM2.247,4c-.521,0-.785.277-.785.823v.406L1.1,5.27c-.078.007-.1.033-.1.107v.128c0,.069.029.1.1.1h.365V7.624c0,.069.028.1.1.1h.3c.07,0,.1-.028.1-.1V5.6h.662c.069,0,.1-.028.1-.1V5.314c0-.067-.03-.1-.1-.1H1.957V4.729c0-.222.126-.33.386-.33a2.007,2.007,0,0,1,.251.021.4.4,0,0,0,.072.008c.059,0,.083-.027.083-.092V4.175c0-.079-.03-.108-.141-.139A2,2,0,0,0,2.247,4Zm1.136.177a.289.289,0,0,0-.3.3.282.282,0,0,0,.308.3.286.286,0,0,0,.31-.3A.28.28,0,0,0,3.383,4.177ZM7.5,6.244H6.276a.679.679,0,0,1,.664-.725.547.547,0,0,1,.418.152.787.787,0,0,1,.142.573Z" fill="#838495"/></svg>