<svg  xmlns="http://www.w3.org/2000/svg" width="11.438" height="14.03" viewBox="0 0 11.438 14.03"><g data-name="Group 1518" transform="translate(0)"><path d="M14.069,0h.1a3,3,0,0,1-.757,2.264,2.345,2.345,0,0,1-2.065.969,2.914,2.914,0,0,1,.77-2.194A3.326,3.326,0,0,1,14.069,0Z" transform="translate(-5.65)" fill="#838495"/><path d="M13.542,12.407v.028a8.163,8.163,0,0,1-1.168,2.252c-.445.613-.991,1.438-1.966,1.438-.842,0-1.4-.542-2.265-.556-.913-.015-1.415.453-2.25.571H5.609a2.542,2.542,0,0,1-1.468-1.012,8.863,8.863,0,0,1-2.037-5.1V9.4A4.112,4.112,0,0,1,3.9,6.025a3.032,3.032,0,0,1,2.036-.471,5.121,5.121,0,0,1,1,.286,2.754,2.754,0,0,0,1,.3,2.393,2.393,0,0,0,.7-.214,4.3,4.3,0,0,1,2.25-.4,3.122,3.122,0,0,1,2.294,1.368,2.943,2.943,0,0,0-1.5,2.92A3.015,3.015,0,0,0,13.542,12.407Z" transform="translate(-2.104 -2.108)" fill="#838495"/></g></svg>