<svg xmlns="http://www.w3.org/2000/svg" width="14" height="13.999" viewBox="0 0 14 13.999"><path d="M10,14H4a4,4,0,0,1-4-4V4A4,4,0,0,1,4,0h6a4,4,0,0,1,4,4v6A4,4,0,0,1,10,14Zm-5.553-3.12a.306.306,0,0,0,0,.613H7.1a.306.306,0,0,0,0-.613h-.51v-.613H8.735a.716.716,0,0,0,.715-.715V7.714a.306.306,0,0,0-.613,0V9.552a.1.1,0,0,1-.1.1H2.813a.1.1,0,0,1-.1-.1V5.672a.1.1,0,0,1,.1-.1h3.88a.306.306,0,0,0,0-.613H2.813a.715.715,0,0,0-.715.715v3.88a.715.715,0,0,0,.715.715H4.958v.613ZM8.123,2.507a.306.306,0,1,0,0,.613,3.169,3.169,0,0,1,3.165,3.165.306.306,0,1,0,.612,0A3.782,3.782,0,0,0,8.123,2.507Zm0,1.157a.306.306,0,1,0,0,.612,2.011,2.011,0,0,1,2.008,2.009.306.306,0,0,0,.613,0A2.624,2.624,0,0,0,8.123,3.664Zm0,1.157a.306.306,0,1,0,0,.612.852.852,0,0,1,.851.851.306.306,0,0,0,.613,0A1.465,1.465,0,0,0,8.123,4.821ZM5.979,10.879H5.57v-.613h.409v.612Z" fill="#838495"/></svg>