<svg xmlns="http://www.w3.org/2000/svg" width="15.527" height="12.026" viewBox="0 0 15.527 12.026"><path d="M363.175,221.274h-.71v-6.716a.432.432,0,0,0-.432-.432h0a.432.432,0,0,0-.432.432v6.716h-9.675v-6.716a.432.432,0,0,0-.432-.432h0a.432.432,0,0,0-.432.432v6.716h-.71A1.352,1.352,0,0,0,349,222.626v1.12a1.352,1.352,0,0,0,1.352,1.352h12.823a1.352,1.352,0,0,0,1.352-1.352v-1.12A1.352,1.352,0,0,0,363.175,221.274ZM350.4,223.668a.5.5,0,1,1,.5-.5A.5.5,0,0,1,350.4,223.668Zm8.312-.166a.332.332,0,1,1,.332-.332A.333.333,0,0,1,358.708,223.5Zm1.3,0a.332.332,0,1,1,.332-.332A.333.333,0,0,1,360.005,223.5Zm1.3,0a.332.332,0,1,1,.332-.332A.333.333,0,0,1,361.3,223.5Zm1.3,0a.332.332,0,1,1,.332-.332A.333.333,0,0,1,362.6,223.5Z" transform="translate(-349 -213.072)" fill="#838495"/><path d="M551.817,231.006l.005-.005a.364.364,0,0,0-.03-.541,3.744,3.744,0,0,0-4.692,0,.364.364,0,0,0-.03.541l.005.005a.364.364,0,0,0,.486.025,3.01,3.01,0,0,1,3.768,0A.364.364,0,0,0,551.817,231.006Z" transform="translate(-541.683 -228.166)" fill="#838495"/><path d="M589.022,285.61l.005-.005a.364.364,0,0,0-.053-.558,2.277,2.277,0,0,0-2.548,0,.364.364,0,0,0-.053.558l.005.005a.365.365,0,0,0,.462.043,1.542,1.542,0,0,1,1.719,0A.365.365,0,0,0,589.022,285.61Z" transform="translate(-579.937 -281.721)" fill="#838495"/><path d="M508.009,176.409a.364.364,0,0,0,.495.017,4.478,4.478,0,0,1,5.836,0,.364.364,0,0,0,.495-.017l.005-.005a.364.364,0,0,0-.02-.533,5.212,5.212,0,0,0-6.8,0,.364.364,0,0,0-.02.533Z" transform="translate(-503.658 -174.611)" fill="#838495"/><circle cx="0.791" cy="0.791" r="0.791" transform="translate(6.856 4.453) rotate(-9.217)" fill="#838495"/></svg>