<svg xmlns="http://www.w3.org/2000/svg" width="200" height="154.819" viewBox="0 0 200 154.819">
  <g id="cyberghost-vpn-no-logs-policy" transform="translate(-422.83 -863.615)">
    <path id="Path_273" data-name="Path 273" d="M498.51,941.17a36.936,36.936,0,0,0-73.866-.929q-.006.465,0,.929c0,20.394-8.633,57.272,11.773,57.272C527.42,998.436,498.51,961.558,498.51,941.17Zm-45.1,18.76c-7.588,0-13.676-6.006-13.676-16.6s6.111-19.192,13.676-19.192,13.67,8.586,13.67,19.192-6.123,16.594-13.67,16.594Zm31.747-2.7c-5.784,1.057-10.792-6.531-10.816-16.25,0-8.388,4.85-15.176,10.816-15.176s10.612,6.794,10.822,15.176c.245,9.666-4.524,15.088-10.822,16.244Z" transform="translate(0 -16.716)" fill="#323232"/>
    <rect id="Rectangle_32" data-name="Rectangle 32" width="29.71" height="21.287" transform="translate(438.681 900.049)" fill="#323232"/>
    <rect id="Rectangle_33" data-name="Rectangle 33" width="29.71" height="21.287" transform="translate(437.917 930.74)" fill="#323232"/>
    <rect id="Rectangle_34" data-name="Rectangle 34" width="29.71" height="21.287" transform="translate(466.704 934.936)" fill="#323232"/>
    <path id="Path_274" data-name="Path 274" d="M722.4,1053.381l9.532-12.258,15.6-78.028-13.1,13.285Z" transform="translate(-124.712 -41.414)" fill="#cc9805"/>
    <path id="Path_275" data-name="Path 275" d="M670.7,985.685l-12.544,77.094-73.878.379-16.209-76.23Z" transform="translate(-60.463 -50.819)" fill="#ffcb03"/>
    <path id="Path_276" data-name="Path 276" d="M568.277,977.584l12.707-9.818,102.4-4.681-12.649,13.553Z" transform="translate(-60.55 -41.41)" fill="#ffdd7d"/>
    <path id="Path_277" data-name="Path 277" d="M685.433,953.461l10.448-29.6-75.594-2.417.444,30.965Z" transform="translate(-82.203 -24.075)" fill="#cc9805"/>
    <path id="Path_278" data-name="Path 278" d="M572.767,932.435c-2.282,2.551-6.461,6.648-6.362,11.861L548,957.038l-.274,9.923,21.6-11.82c2.4,4.313,11.674,3.9,20.429,3.864l.642-20.616-9.181.379C576.871,939.463,574.355,935.89,572.767,932.435Z" transform="translate(-51.995 -28.65)" fill="#323232"/>
    <path id="Path_279" data-name="Path 279" d="M593.907,978.564l4.874-3.619,75.792.665-2.171,3.747Z" transform="translate(-71.22 -46.348)" fill="#323232"/>
    <path id="Path_280" data-name="Path 280" d="M613.86,930.349c-5.37-12.806-9.689-43.339-2.7-55.848,6.923-9.392,11.242-10.034,22.577-10.886,21.772.823,46.847-.222,53.069,9.4-7.22-2.831-10.045-6.088-16.343,6.024-5.049,11.359-4.74,35.605-2.271,51.581Z" transform="translate(-76.891)" fill="#ffe6a9"/>
    <path id="Path_281" data-name="Path 281" d="M596.929,928.03c-1.751.274-4.944.829-6.642,2.732,1.582,3.45,4.815,7.43,9.111,6.759l-.14-.5s.712-3.152,5.708-.21c2.86,1.675,5.078,1.243,5.609-1.483C611.948,928.24,601.278,927.347,596.929,928.03Z" transform="translate(-69.714 -26.738)" fill="#323232"/>
    <path id="Path_282" data-name="Path 282" d="M575.817,1005.107h22.834l3.747-3.741h38.115l4.022,4.016h28.14" transform="translate(-63.689 -57.346)" fill="none" stroke="#cc9805" stroke-miterlimit="10" stroke-width="1.12"/>
    <path id="Path_283" data-name="Path 283" d="M666.313,1021.615l-8.808,47.145-51.867.263-11.382-46.532Z" transform="translate(-71.366 -65.777)" fill="#4c5063"/>
    <path id="Path_284" data-name="Path 284" d="M615.228,1079.723l-2.411-9.788,1.366-1.1.817-7.652,2.189.274v3.28l3.829-3.006-2.463-2.463,3.829.549-1.366-3.829,1.914-1.092.817,3.28,5.195-3.829.549,2.737,5.195.543-2.463-4.921,4.086,1.64,1.64-3.555,7.927,3.28,2.183,1.914,1.914-3.823,2.189,1.366-2.463,1.64,3.012,4.67,6.286-2.189-.549-4.67,3.555-1.366,1.091,3.555c-1.091.543-.543,2.732-.543,2.732l3.006-3.28.274,3.829.269,7.927-2.457,13.121Z" transform="translate(-79.093 -77.925)" fill="#a7aec6"/>
    <path id="Path_285" data-name="Path 285" d="M692.037,1025.865l4.092,4.71-1.226,2.043-5.936-5.936Z" transform="translate(-110.795 -67.546)" fill="#a7aec6"/>
    <path id="Path_286" data-name="Path 286" d="M625.154,1050.442l-3.3,3.117-1.523-.835,4.144-4.489Z" transform="translate(-82.219 -76.859)" fill="#a7aec6"/>
    <path id="Path_287" data-name="Path 287" d="M678.12,1024.735l1.284,1.027L676.5,1030.2l-1.751-1.278Z" transform="translate(-104.875 -67.076)" fill="#a7aec6"/>
    <path id="Path_288" data-name="Path 288" d="M702.344,1041.833l-3.806,5.744-1.512-.66,3.31-5.942Z" transform="translate(-114.15 -73.836)" fill="#a7aec6"/>
    <path id="Path_289" data-name="Path 289" d="M642.256,1024.915l.747,6.847-1.588.461-1.249-6.683Z" transform="translate(-90.479 -67.15)" fill="#a7aec6"/>
    <path id="Path_290" data-name="Path 290" d="M658.313,1023.57,656.947,1026l2.224.858,2.218-3.677Z" transform="translate(-97.464 -66.43)" fill="#a7aec6"/>
    <path id="Path_291" data-name="Path 291" d="M668.036,1045.325c-.21.088-4.669,5.341-4.669,5.341l.986.689,6.281-5.218Z" transform="translate(-100.137 -75.647)" fill="#a7aec6"/>
    <path id="Path_292" data-name="Path 292" d="M624.607,1030.742c0,.228,2.7,6.555,2.7,6.555l1.051-.584-1.879-7.938Z" transform="translate(-84.001 -68.757)" fill="#a7aec6"/>
    <path id="Path_293" data-name="Path 293" d="M675.685,1037.574c0,.21,3.117,3.2,3.117,3.2l1.623-1.068-4.827-4.016Z" transform="translate(-105.229 -71.638)" fill="#a7aec6"/>
    <path id="Path_294" data-name="Path 294" d="M657.967,1035.425c0,.21.409,7.279.409,7.279l1.99-1.879-.887-5.364Z" transform="translate(-97.889 -71.526)" fill="#a7aec6"/>
    <path id="Path_295" data-name="Path 295" d="M639.165,1042.075l6.5,3.718-2.183,1.92s-5.808-4.827-5.936-4.786S639.165,1042.075,639.165,1042.075Z" transform="translate(-89.383 -74.294)" fill="#a7aec6"/>
    <path id="Path_296" data-name="Path 296" d="M684.025,1047.088a35.79,35.79,0,0,0-1.8,4.016l2.65.21,1.167-5.638Z" transform="translate(-107.989 -75.793)" fill="#a7aec6"/>
    <path id="Path_297" data-name="Path 297" d="M683.7,1067.8a35.886,35.886,0,0,0,1.068-4.267l-2.644.251-.2,5.761Z" transform="translate(-107.864 -83.228)" fill="#a7aec6"/>
    <path id="Path_298" data-name="Path 298" d="M633.332,1046.533l3.59,6.281-2.778.852-3.117-7.991Z" transform="translate(-86.674 -75.793)" fill="#a7aec6"/>
    <path id="Path_299" data-name="Path 299" d="M617.6,1031.225c-.169.216-.467,7.436-.467,7.436l-1.284-.514-.584-6.882Z" transform="translate(-80.113 -69.777)" fill="#a7aec6"/>
    <path id="Path_1142-3" data-name="Path 1142-3" d="M500.763,1114.387c0,3.5-14.744,6.333-32.926,6.333s-32.92-2.831-32.92-6.333,12.345-5.072,30.527-5.072S500.763,1110.891,500.763,1114.387Z" transform="translate(-5.032 -102.287)" fill="#263238" opacity="0.22" style="isolation: isolate"/>
  </g>
</svg>
